HIERARCHY
ROOT root
{
	OFFSET 0.000000 0.000000 0.000000
	CHANNELS 6 Xposition Yposition Zposition Zrotation Yrotation Xrotation
	JOINT lhip
	{
		OFFSET 0.058581 -0.082280 -0.017664
		CHANNELS 3 Zrotation Yrotation Xrotation
		JOINT lknee
		{
			OFFSET 0.043451 -0.386469 0.008037
			CHANNELS 3 Zrotation Yrotation Xrotation
			JOINT lankle
			{
				OFFSET -0.014790 -0.426874 -0.037428
				CHANNELS 3 Zrotation Yrotation Xrotation
				JOINT ltoe
				{
					OFFSET 0.041054 -0.060286 0.122042
					CHANNELS 3 Zrotation Yrotation Xrotation
					End Site
					{
						OFFSET 0.000000 0.000000 0.000000
					}
				}
			}
		}
	}
	JOINT rhip
	{
		OFFSET -0.060310 -0.090513 -0.013543
		CHANNELS 3 Zrotation Yrotation Xrotation
		JOINT rknee
		{
			OFFSET -0.043257 -0.383688 -0.004843
			CHANNELS 3 Zrotation Yrotation Xrotation
			JOINT rankle
			{
				OFFSET 0.019056 -0.420046 -0.034562
				CHANNELS 3 Zrotation Yrotation Xrotation
				JOINT rtoe
				{
					OFFSET -0.034840 -0.062106 0.130323
					CHANNELS 3 Zrotation Yrotation Xrotation
					End Site
					{
						OFFSET 0.000000 0.000000 0.000000
					}
				}
			}
		}
	}
	JOINT lowerback
	{
		OFFSET 0.004439 0.124404 -0.038385
		CHANNELS 3 Zrotation Yrotation Xrotation
		JOINT upperback
		{
			OFFSET 0.004488 0.137956 0.026820
			CHANNELS 3 Zrotation Yrotation Xrotation
			JOINT chest
			{
				OFFSET -0.002265 0.056032 0.002855
				CHANNELS 3 Zrotation Yrotation Xrotation
				JOINT lowerneck
				{
					OFFSET -0.013390 0.211636 -0.033468
					CHANNELS 3 Zrotation Yrotation Xrotation
					JOINT upperneck
					{
						OFFSET 0.010113 0.088937 0.050410
						CHANNELS 3 Zrotation Yrotation Xrotation
						End Site
						{
							OFFSET 0.000000 0.000000 0.000000
						}
					}
				}
				JOINT lclavicle
				{
					OFFSET 0.071702 0.114000 -0.018898
					CHANNELS 3 Zrotation Yrotation Xrotation
					JOINT lshoulder
					{
						OFFSET 0.122921 0.045205 -0.019046
						CHANNELS 3 Zrotation Yrotation Xrotation
						JOINT lelbow
						{
							OFFSET 0.255332 -0.015649 -0.022946
							CHANNELS 3 Zrotation Yrotation Xrotation
							JOINT lwrist
							{
								OFFSET 0.265709 0.012698 -0.007375
								CHANNELS 3 Zrotation Yrotation Xrotation
								End Site
								{
									OFFSET 0.000000 0.000000 0.000000
								}
							}
						}
					}
				}
				JOINT rclavicle
				{
					OFFSET -0.082954 0.112472 -0.023707
					CHANNELS 3 Zrotation Yrotation Xrotation
					JOINT rshoulder
					{
						OFFSET -0.113228 0.046853 -0.008472
						CHANNELS 3 Zrotation Yrotation Xrotation
						JOINT relbow
						{
							OFFSET -0.260127 -0.014369 -0.031269
							CHANNELS 3 Zrotation Yrotation Xrotation
							JOINT rwrist
							{
								OFFSET -0.269108 0.006794 -0.006027
								CHANNELS 3 Zrotation Yrotation Xrotation
								End Site
								{
									OFFSET 0.000000 0.000000 0.000000
								}
							}
						}
					}
				}
			}
		}
	}
}
MOTION
Frames: 11
Frame Time: 0.033333
0.078546 0.787408 0.990474 -95.497355 -1.621539 80.848707 8.340236 -8.562258 -37.574223 -7.753704 8.654234 51.806362 2.117385 6.305314 -14.651272 0.000000 -0.000000 0.000000 -0.442390 -1.360330 12.382008 1.670141 7.159172 14.264187 1.767812 -2.654904 -15.179540 0.000000 -0.000000 0.000000 -3.644320 10.961306 13.300314 1.940081 -3.633183 5.558312 -1.150663 0.168561 7.127371 1.999135 0.838123 11.690893 4.358725 -4.670426 14.579159 -25.313656 6.453112 2.072499 -60.869388 -2.260153 5.227760 11.298835 -25.051440 3.186012 -5.525905 0.511678 -8.386870 24.346002 -1.308256 -0.606589 62.074074 7.542108 12.483070 -14.665751 35.062541 -0.591468 7.503333 1.375341 -10.036226 
0.060157 0.784648 0.990018 -95.792258 -1.351254 81.238354 6.938579 -7.492439 -34.912662 -8.481008 6.386471 49.543274 8.098220 9.513194 -16.319273 0.000000 -0.000000 0.000000 -1.183729 -2.474436 13.526628 2.526653 9.041595 13.506860 1.692739 -3.416051 -14.334738 0.000000 -0.000000 0.000000 -3.324406 10.613168 14.377488 1.092147 -2.330705 2.307625 -1.105334 -0.288999 8.734139 2.598270 -0.424119 11.381374 2.552039 -3.938965 15.184471 -26.132847 8.412829 3.449279 -59.063656 -3.656019 6.001006 10.782489 -26.129488 4.634442 -4.454792 1.774823 -11.083999 25.011767 -2.217380 -0.239508 61.325717 7.922872 14.438932 -13.860108 34.714112 -1.700424 4.215789 0.983714 -10.152798 
0.042638 0.781028 0.991376 -95.435342 -1.016872 81.998524 6.065454 -7.307906 -34.855691 -8.533892 5.738984 50.758278 9.018289 9.859267 -17.873848 0.000000 -0.000000 0.000000 -1.408024 -3.145866 14.036503 2.404979 9.371914 13.212313 2.308165 -3.120738 -13.261715 0.000000 -0.000000 0.000000 -3.295325 10.672256 14.433048 0.856907 -2.258118 1.574886 -1.162245 -0.292257 8.862008 2.702355 -0.796515 10.919942 2.566158 -3.824540 15.444310 -26.346670 8.616546 3.230868 -58.467598 -3.823454 5.853484 10.558914 -26.157554 4.529910 -4.249750 1.656752 -10.929051 25.261512 -2.607995 -0.369554 61.101198 7.571630 14.415175 -13.356089 33.854113 -1.727876 4.247737 1.174738 -9.720762 
0.026387 0.777066 0.994972 -95.003829 -1.110573 83.118544 5.960023 -8.255479 -35.218270 -8.419825 6.613336 50.906769 8.371386 9.901679 -17.096951 0.000000 -0.000000 0.000000 -1.971334 -2.917281 14.140241 2.351808 9.043935 12.469135 3.059493 -2.984512 -10.434879 0.000000 -0.000000 0.000000 -4.037279 11.119819 14.180976 0.828102 -2.416784 1.396434 -1.025185 -0.307565 8.692228 2.636446 -1.402164 10.512318 3.111465 -4.040193 14.690411 -26.307358 8.335698 3.119912 -58.158407 -4.259327 5.952787 10.513775 -26.023451 3.981249 -4.394132 1.463691 -10.904334 25.297295 -2.765285 -0.311452 61.036705 7.104882 14.462381 -13.615397 33.306375 -2.294968 4.231198 1.044690 -9.714556 
0.008455 0.772568 1.001798 -94.797965 -0.978320 83.763096 4.978033 -8.580138 -33.402200 -8.505592 5.658722 49.382702 9.447181 11.016363 -18.698315 0.000000 -0.000000 0.000000 -2.342516 -3.129008 14.405141 2.100178 9.259584 12.457115 4.303430 -2.671364 -6.760658 0.000000 -0.000000 0.000000 -4.519501 11.612695 13.688151 0.798942 -2.253552 1.933263 -0.892324 -0.435991 8.530489 2.706323 -2.048334 10.608227 3.528721 -3.940921 14.424454 -25.899790 7.613645 3.529087 -58.496266 -4.873063 6.004505 10.845052 -26.186988 3.625761 -4.484340 1.318070 -11.200685 24.981119 -2.633100 0.182563 61.333572 6.783395 14.173975 -14.222270 32.610387 -3.205458 4.471589 0.890146 -9.983996 
-0.008807 0.767741 1.011507 -94.555526 -0.586726 84.711493 4.447470 -8.729615 -31.686613 -8.425306 5.007387 47.201076 9.727319 11.283327 -19.026751 0.000000 -0.000000 0.000000 -2.463077 -3.297314 13.662350 2.019679 9.173036 13.132128 5.955820 -2.314616 -2.257788 0.000000 -0.000000 0.000000 -4.935931 11.652068 13.068272 0.862036 -2.060369 2.035399 -0.723532 -0.441918 8.579059 2.877748 -2.481132 10.430668 3.916652 -3.879936 14.133432 -25.778625 7.446861 3.391212 -58.670836 -5.452723 6.349515 10.973579 -26.700264 3.462605 -4.689432 0.987206 -11.068851 24.812093 -2.820023 0.123774 61.215472 6.407295 14.350004 -14.028288 31.525498 -3.430117 4.831325 0.843805 -9.873237 
-0.025177 0.762581 1.022720 -93.930238 -0.172027 85.699783 3.760633 -8.901961 -29.808482 -8.270502 4.035228 44.381367 10.269745 11.607214 -18.918282 0.000000 -0.000000 0.000000 -2.479308 -3.576113 11.938240 2.037044 8.909548 15.017875 7.590045 -1.926446 3.105332 0.000000 -0.000000 0.000000 -5.406708 11.261954 12.549615 0.987653 -2.010759 1.969101 -0.537001 -0.626170 8.458574 3.098061 -2.866260 10.496106 4.311659 -3.656627 14.187256 -25.508767 7.719363 3.449771 -58.885104 -5.944025 6.725996 11.002770 -28.169165 3.273223 -4.706220 0.777671 -10.941982 24.492665 -3.168713 0.198189 61.217814 5.899927 14.630559 -14.030225 31.051591 -3.403715 5.141674 0.882245 -9.305289 
-0.041308 0.757241 1.035269 -92.993308 0.398908 86.357287 2.855122 -8.813297 -27.204100 -8.088890 2.103787 41.050430 10.709233 11.865318 -18.774710 0.000000 -0.000000 0.000000 -2.223396 -4.042302 9.385127 2.053732 8.403165 18.567022 9.274811 -1.662301 8.264102 0.000000 -0.000000 0.000000 -5.599059 10.492343 12.440349 1.138674 -2.024614 1.989734 -0.356599 -0.988264 8.176931 3.153474 -3.622786 10.496382 4.489873 -3.630740 13.951804 -25.283692 7.786212 3.941610 -58.951382 -6.378651 6.909228 11.057284 -29.755714 3.011446 -4.681770 0.462687 -11.187829 24.275852 -3.544109 0.236827 61.064460 5.384880 14.547560 -14.120912 30.921922 -3.744335 5.599600 0.874097 -8.862624 
-0.052302 0.753419 1.045173 -92.559431 0.760048 86.604474 2.384539 -8.738115 -24.949707 -8.059965 0.912620 38.273350 10.929331 12.037381 -18.332108 0.000000 -0.000000 0.000000 -1.885846 -3.701012 6.756623 2.186600 7.775508 23.023863 10.326530 -1.671353 10.389204 0.000000 -0.000000 0.000000 -5.687362 9.795441 12.627880 1.256861 -1.725003 1.845769 -0.327173 -1.082874 8.177292 3.419977 -3.676803 10.538227 4.332787 -3.410481 13.947830 -24.948411 7.737563 3.650416 -59.015664 -6.698721 7.269050 10.815560 -30.496737 2.985515 -4.938529 0.124480 -11.170461 24.026680 -3.874038 0.143347 61.257748 4.943600 14.513221 -14.416947 30.623344 -4.589198 5.830447 1.067935 -9.195883 
-0.065410 0.749008 1.057456 -92.328091 1.084732 86.876514 1.641132 -8.353067 -21.943174 -7.915243 -0.902056 34.397879 11.147635 12.133752 -17.622739 0.000000 -0.000000 0.000000 -1.259484 -2.778871 1.681504 2.186833 6.372336 31.949943 9.759980 -2.964057 12.081082 0.000000 -0.000000 0.000000 -6.054288 8.618477 12.963140 1.419126 -1.262161 1.860132 -0.329426 -1.333886 7.998424 3.715373 -3.590299 10.087876 4.183016 -3.499386 13.748173 -24.729566 7.664605 4.048361 -58.804878 -7.317154 7.344909 10.999787 -31.831152 2.451472 -5.341583 -0.020726 -11.530676 23.944818 -3.901411 0.208621 61.262238 4.524518 14.506860 -14.953485 30.610096 -5.819845 6.402448 1.348223 -9.521308 
-0.078760 0.744762 1.068599 -91.805740 1.351334 86.426376 0.540812 -7.686742 -18.106593 -7.421951 -3.210542 30.511777 11.128961 12.475063 -16.916788 0.000000 -0.000000 0.000000 -1.118866 -2.129237 -3.294762 1.335613 3.182956 42.689118 8.151448 -6.029522 9.833066 0.000000 -0.000000 0.000000 -6.258098 7.112726 13.822621 1.539189 -0.862653 1.950145 -0.340238 -1.657285 8.247371 4.119784 -2.950664 9.489662 3.882272 -3.218077 13.496369 -24.582365 7.340599 3.706286 -58.453703 -7.793019 7.411034 10.982817 -32.474730 2.030350 -5.259686 0.026960 -11.447441 24.018290 -3.950554 -0.445914 61.187615 3.866976 14.628096 -15.446871 30.844087 -6.825124 6.762522 1.405317 -9.524169 
